<svg style="" width="14.000000" height="14.000000" version="1.1" xmlns="http://www.w3.org/2000/svg">
<path d="M9.437500 2.687500 L2.000000 2.687500 C1.624998 2.687500 1.307293 2.557293 1.046875 2.296875 C0.786457 2.036457 0.656250 1.718752 0.656250 1.343750 C0.656250 0.968748 0.786457 0.651043 1.046875 0.390625 C1.307293 0.130207 1.624998 -0.000000 2.000000 -0.000000 L2.000000 -0.000000 L12.656250 -0.000000 C12.656250 -0.000000 12.656250 -0.000000 12.656250 -0.000000 C12.656250 -0.000000 12.656250 -0.000000 12.656250 -0.000000 C13.031252 -0.000000 13.348957 0.130207 13.609375 0.390625 C13.869793 0.651043 14.000000 0.968748 14.000000 1.343750 C14.000000 1.343750 14.000000 1.343750 14.000000 1.343750 C14.000000 1.343750 14.000000 1.343750 14.000000 1.343750 L14.000000 1.343750 L14.000000 12.000000 C14.000000 12.375002 13.869793 12.692707 13.609375 12.953125 C13.348957 13.213543 13.031252 13.343750 12.656250 13.343750 C12.281248 13.343750 11.963543 13.213543 11.703125 12.953125 C11.442707 12.692707 11.312500 12.375002 11.312500 12.000000 L11.312500 12.000000 L11.312500 4.562500 L2.281250 13.593750 C2.156249 13.718751 2.015626 13.817708 1.859375 13.890625 C1.703124 13.963542 1.531251 14.000000 1.343750 14.000000 C0.968748 14.000000 0.651043 13.869793 0.390625 13.609375 C0.130207 13.348957 0.000000 13.031252 0.000000 12.656250 C0.000000 12.468749 0.036458 12.296876 0.109375 12.140625 C0.182292 11.984374 0.281249 11.843751 0.406250 11.718750 L9.437500 2.687500 Z M23.000000 20.125000" style="fill:black"/>
</svg>